# xmcd
#
# Track frame offsets: 
#        150
#        17409
#        40151
#        62297
#        76905
#        99849
#        120051
#        142574
#        158621
#        169324
#        194453
#        213778
#
# Disc length: 3183 seconds
#
# Revision: 0
# Processed by: cddbd v1.5.2PL0 Copyright (c) Steve Scherf et al.
# Submitted via: ExactAudioCopy v0.90b4
#
DISCID=7b0c6d0c
DTITLE=Tor Einar Bekken - Dr Bekkien and The Bookerizers
DYEAR=2003
DGENRE=Blues
TTITLE0=Shameless Cow Boogie
TTITLE1=You Are My Sunshine
TTITLE2=On The Way Back Home
TTITLE3=Rhythm Boogie
TTITLE4=Dead Cow Blues
TTITLE5=Bushfire Blues
TTITLE6=Byrd's Blues
TTITLE7=Telephone Blues
TTITLE8=One For The Cripple
TTITLE9=All By Myself
TTITLE10=Prescription For The Blues
TTITLE11=Hey Little Girl
EXTD=
EXTT0=
EXTT1=
EXTT2=
EXTT3=
EXTT4=
EXTT5=
EXTT6=
EXTT7=
EXTT8=
EXTT9=
EXTT10=
EXTT11=
PLAYORDER=
